PathFileType	4	(X/Y/Z)	C:/Users/opensim2020/Desktop/walking_exp_matlab/subject03_walking04_straight_02.trc																																																																																																																																																							
DataRate	CameraRate	NumFrames	NumMarkers	Units	OrigDataRate	OrigDataStartFrame	OrigNumFrames																																																																																																																																																			
100	100	7	51	mm	100	1572	259																																																																																																																																																			
Frame#	Time	LFHD			RFHD			LBHD			RBHD			C7			T10			CLAV			STRN			RBAK			LSHO			LUPA			LELB			LFRM			LWRA			LWRB			LFIN			RSHO			RUPA			RELB			RFRM			RWRA			RWRB			RFIN			LASI			RASI			LPSI			RPSI			LTHI			LKNE			LTIB			LANK			LHEE			LTOE			RTHI			RKNE			RTIB			RANK			RHEE			RTOE			*39			*40			*41			*42			*43			*44			*45			*46			*47			*48			*49			*50		
		X1	Y1	Z1	X2	Y2	Z2	X3	Y3	Z3	X4	Y4	Z4	X5	Y5	Z5	X6	Y6	Z6	X7	Y7	Z7	X8	Y8	Z8	X9	Y9	Z9	X10	Y10	Z10	X11	Y11	Z11	X12	Y12	Z12	X13	Y13	Z13	X14	Y14	Z14	X15	Y15	Z15	X16	Y16	Z16	X17	Y17	Z17	X18	Y18	Z18	X19	Y19	Z19	X20	Y20	Z20	X21	Y21	Z21	X22	Y22	Z22	X23	Y23	Z23	X24	Y24	Z24	X25	Y25	Z25	X26	Y26	Z26	X27	Y27	Z27	X28	Y28	Z28	X29	Y29	Z29	X30	Y30	Z30	X31	Y31	Z31	X32	Y32	Z32	X33	Y33	Z33	X34	Y34	Z34	X35	Y35	Z35	X36	Y36	Z36	X37	Y37	Z37	X38	Y38	Z38	X39	Y39	Z39	X40	Y40	Z40	X41	Y41	Z41	X42	Y42	Z42	X43	Y43	Z43	X44	Y44	Z44	X45	Y45	Z45	X46	Y46	Z46	X47	Y47	Z47	X48	Y48	Z48	X49	Y49	Z49	X50	Y50	Z50	X51	Y51	Z51
																																																																																																																																																										
33	0.32	-1153.05676	1629.52832	-1599.90369	-1174.46912	1627.09753	-1468.47083	-1276.07312	1574.17676	-1617.64185	-1291.7738	1572.24084	-1487.14966	-1306.77869	1420.76196	-1554.05298	-1346.54382	1107.84802	-1553.8114	-1182.23291	1345.94226	-1553.0144	-1141.34106	1179.69055	-1564.42908	-1357.27209	1244.82092	-1453.76306	-1224.22095	1384.96204	-1708.42834	-1226.96948	1187.95972	-1777.12805	-1215.98438	1064.11182	-1787.62781	-1183.1217	937.98267	-1787.40295	-1155.09009	821.74072	-1757.14185	-1182.24866	824.21692	-1805.9989	-1164.76111	741.07922	-1794.10327	-1225.8894	1366.64514	-1393.59436	-1216.30371	1142.36511	-1324.1145	-1198.75427	1030.13721	-1314.62048	-1181.14526	894.16229	-1316.9635	-1156.07446	799.237	-1357.67627	-1180.89514	793.57507	-1309.69714	-1164.16321	721.46716	-1325.69153	-1188.56299	936.63049	-1679.43262	-1169.61353	945.61224	-1441.75928	-1346.75195	959.13928	-1617.33118	-1334.6333	976.16022	-1469.79077	-1240.7699	634.32019	-1734.24451	-1221.69202	454.33841	-1721.33801	-1377.81653	336.53235	-1704.59985	-1529.9137	200.90369	-1651.7489	-1574.5946	212.53963	-1606.52942	-1477.53589	61.05224	-1634.62061	-1210.41687	651.44293	-1404.36426	-1183.78418	473.80814	-1450.2981	-1215.05298	285.53229	-1455.62048	-1224.15442	72.00965	-1515.28662	-1266.78052	40.58136	-1566.34094	-1080.54773	37.44905	-1539.13123	-1247.91431	1681.02283	-1560.61572	NaN	NaN	NaN	NaN	NaN	NaN	NaN	NaN	NaN	NaN	NaN	NaN	NaN	NaN	NaN	NaN	NaN	NaN	NaN	NaN	NaN	NaN	NaN	NaN	NaN	NaN	NaN	NaN	NaN	NaN	NaN	NaN	NaN
34	0.33	-1143.72083	1630.05627	-1600.35083	-1164.97754	1627.5553	-1468.86938	-1266.68359	1574.53357	-1617.901	-1282.32751	1572.5481	-1487.49316	-1297.17957	1421.29211	-1554.22034	-1337.45691	1108.45276	-1553.4043	-1172.80151	1346.29614	-1553.61218	-1132.0752	1179.9585	-1564.83301	-1347.92004	1245.54968	-1453.56506	-1215.79297	1384.76025	-1709.15967	-1219.6051	1187.29065	-1777.42151	-1209.29761	1063.60315	-1788.16418	-1178.85156	936.61829	-1788.48438	-1153.8197	819.38306	-1758.91455	-1180.58484	822.9071	-1807.98633	-1166.30725	738.97449	-1795.97083	-1215.85168	1367.03308	-1393.94885	-1203.75854	1142.75378	-1324.45288	-1184.74988	1030.84094	-1314.79529	-1165.98047	894.95264	-1316.92859	-1140.96069	800.02734	-1357.75781	-1164.56079	794.44202	-1309.17493	-1146.61487	722.84796	-1324.59448	-1179.81323	937.2937	-1679.46973	-1159.70374	946.28717	-1441.09668	-1337.87634	959.09058	-1617.25916	-1325.61072	976.65747	-1469.66919	-1225.97205	635.29651	-1735.00122	-1202.15588	455.91348	-1722.34741	-1357.12659	336.95984	-1706.45337	-1509.57727	201.73219	-1654.80444	-1554.57568	211.47617	-1609.05005	-1454.32849	62.79988	-1638.88635	-1202.92407	651.34747	-1404.91663	-1179.00085	473.55197	-1450.56274	-1212.54688	285.66595	-1455.74805	-1223.96875	72.24863	-1515.42822	-1266.75049	40.83842	-1566.48413	-1080.44666	37.35275	-1539.16541	-1238.68188	1681.30188	-1560.95667	NaN	NaN	NaN	NaN	NaN	NaN	NaN	NaN	NaN	NaN	NaN	NaN	NaN	NaN	NaN	NaN	NaN	NaN	NaN	NaN	NaN	NaN	NaN	NaN	NaN	NaN	NaN	NaN	NaN	NaN	NaN	NaN	NaN
35	0.34	-1134.43262	1630.58582	-1600.90759	-1155.40637	1627.82617	-1469.34106	-1257.3302	1574.92456	-1618.29309	-1272.7262	1572.7998	-1487.81506	-1287.64978	1421.78992	-1554.36743	-1328.50842	1109.14636	-1553.05054	-1163.41077	1346.66931	-1554.24329	-1122.9856	1180.26135	-1565.18274	-1338.72424	1246.38794	-1453.56274	-1207.41187	1384.73401	-1709.91101	-1212.63281	1186.89417	-1777.92407	-1202.8551	1063.21216	-1788.65454	-1174.68787	935.66437	-1789.61292	-1152.46887	817.56378	-1760.64233	-1178.7168	822.04559	-1809.96863	-1167.26355	737.45667	-1797.96851	-1206.24561	1367.61243	-1394.50549	-1191.45728	1143.48816	-1324.7135	-1170.74744	1031.83826	-1315.20618	-1150.74487	896.17358	-1316.96216	-1125.06592	801.43146	-1357.83716	-1148.19556	795.74945	-1308.79773	-1128.87329	724.60767	-1323.96179	-1170.9939	938.17108	-1679.35303	-1150.92004	946.83307	-1440.9198	-1328.96643	959.39557	-1617.15833	-1316.56812	977.10352	-1469.57019	-1211.79041	636.18945	-1734.84546	-1182.50586	457.38123	-1723.01379	-1336.22021	337.06482	-1708.10938	-1487.88879	200.54027	-1657.14917	-1533.90186	209.03275	-1611.50977	-1429.4845	62.94404	-1642.19385	-1195.98206	651.49854	-1405.2594	-1174.34509	473.28677	-1450.85559	-1209.98645	285.73428	-1455.96021	-1223.76355	72.5977	-1515.72583	-1266.71545	41.28456	-1566.69556	-1080.32434	37.27305	-1539.16614	-1229.40283	1681.67676	-1561.25293	NaN	NaN	NaN	NaN	NaN	NaN	NaN	NaN	NaN	NaN	NaN	NaN	NaN	NaN	NaN	NaN	NaN	NaN	NaN	NaN	NaN	NaN	NaN	NaN	NaN	NaN	NaN	NaN	NaN	NaN	NaN	NaN	NaN
36	0.35	-1125.11597	1631.06372	-1601.45251	-1145.89661	1628.23352	-1469.93018	-1247.95349	1575.30823	-1618.67542	-1263.28796	1573.14685	-1488.35657	-1278.20459	1422.27576	-1554.55212	-1320.19885	1110.24194	-1553.35608	-1154.1936	1346.96167	-1554.74988	-1113.9165	1180.54626	-1565.42981	-1329.32996	1247.21118	-1453.48792	-1198.95569	1384.77588	-1710.50745	-1205.93274	1186.66956	-1778.35498	-1196.80444	1063.03223	-1789.19031	-1170.63464	935.08588	-1790.75537	-1150.76587	816.39667	-1762.42493	-1176.72412	821.75812	-1811.96997	-1167.85303	736.55487	-1800.0979	-1195.80615	1368.08057	-1394.59265	-1179.16565	1144.41321	-1325.09033	-1156.88367	1033.19189	-1315.67798	-1135.55835	897.69482	-1317.12231	-1109.04175	803.3902	-1357.42395	-1131.7699	797.45947	-1308.48389	-1110.99548	726.80713	-1323.0282	-1162.07947	939.27631	-1679.08179	-1143.01428	947.20325	-1441.26807	-1320.07922	959.95892	-1617.07507	-1307.61267	977.44147	-1469.45679	-1196.40979	637.02527	-1735.03027	-1163.28015	459.36789	-1723.22498	-1315.07031	336.974	-1709.72559	-1465.40002	198.3387	-1659.32837	-1512.73267	205.4073	-1614.14783	-1403.23438	63.15626	-1645.53723	-1189.0769	651.3382	-1405.66028	-1169.88	473.11844	-1451.16138	-1207.3999	285.84418	-1456.15442	-1223.40173	72.64876	-1515.87158	-1266.53149	41.54914	-1566.84802	-1080.14587	37.19395	-1539.17664	-1220.06458	1682.1178	-1561.57141	NaN	NaN	NaN	NaN	NaN	NaN	NaN	NaN	NaN	NaN	NaN	NaN	NaN	NaN	NaN	NaN	NaN	NaN	NaN	NaN	NaN	NaN	NaN	NaN	NaN	NaN	NaN	NaN	NaN	NaN	NaN	NaN	NaN
37	0.36	-1115.72693	1631.50134	-1602.09412	-1135.95752	1628.45166	-1470.61719	-1238.45471	1575.62439	-1618.97998	-1253.67175	1573.4115	-1488.80774	-1268.85791	1422.77185	-1554.729	-1311.35327	1110.89111	-1553.06934	-1144.995	1347.33374	-1555.30103	-1104.87939	1180.8468	-1565.66296	-1320.13513	1248.20593	-1453.47083	-1190.54578	1385.01416	-1710.99036	-1199.60327	1186.74023	-1778.8208	-1191.1084	1063.21558	-1789.88721	-1166.67334	934.88025	-1791.97266	-1148.99475	815.63708	-1764.1687	-1174.6427	821.92346	-1813.85693	-1167.87695	736.3233	-1802.44006	-1186.0105	1368.89648	-1395.04919	-1167.18591	1145.62952	-1325.37659	-1143.12048	1034.68286	-1316.19458	-1120.50854	899.60834	-1317.21814	-1093.25647	805.46686	-1357.38391	-1115.42615	799.52124	-1308.23328	-1092.79211	729.29144	-1322.92151	-1153.04211	940.4624	-1678.78345	-1133.55371	947.60999	-1440.43799	-1311.25586	960.65149	-1617.05078	-1298.72144	977.72601	-1469.37439	-1181.10486	638.65576	-1734.4696	-1144.04919	461.11423	-1722.99158	-1293.5061	336.05399	-1710.55847	-1442.85693	195.59837	-1661.84473	-1491.06311	200.554	-1616.96106	-1375.82141	63.21129	-1648.64111	-1181.80176	651.23041	-1406.25916	-1165.50012	472.87531	-1451.50146	-1204.89404	286.04395	-1456.44324	-1223.08521	72.92277	-1516.11951	-1266.4679	41.91151	-1566.96716	-1079.98181	37.12346	-1539.16443	-1210.72095	1681.60535	-1563.06592	NaN	NaN	NaN	NaN	NaN	NaN	NaN	NaN	NaN	NaN	NaN	NaN	NaN	NaN	NaN	NaN	NaN	NaN	NaN	NaN	NaN	NaN	NaN	NaN	NaN	NaN	NaN	NaN	NaN	NaN	NaN	NaN	NaN
38	0.37	-1106.3429	1631.87537	-1602.9259	-1126.70227	1628.96045	-1471.33777	-1229.2594	1576.1134	-1619.85022	-1244.10645	1573.8125	-1489.38403	-1259.65503	1423.28967	-1554.96289	-1302.69971	1111.56396	-1552.93213	-1135.81494	1347.61804	-1555.85095	-1096.12549	1181.02429	-1565.84729	-1310.79272	1249.26929	-1453.26685	-1181.96204	1385.323	-1711.35571	-1193.39844	1187.03284	-1779.38513	-1185.7229	1063.53223	-1790.65149	-1162.8009	934.98425	-1793.20667	-1146.82153	815.38873	-1766.13184	-1172.2749	822.36682	-1815.72778	-1167.32788	736.51202	-1804.92078	-1176.83679	1370.10547	-1395.74219	-1155.47437	1147.00806	-1325.57764	-1129.74963	1036.45862	-1316.6228	-1105.11755	901.69208	-1317.45105	-1078.26917	807.58276	-1357.8175	-1099.09143	801.7818	-1308.07703	-1074.99634	732.07611	-1321.95276	-1143.9884	941.70746	-1678.49402	-1125.50928	947.85059	-1440.59619	-1302.3894	961.46655	-1617.13281	-1289.974	977.87598	-1469.3501	-1164.02063	639.95813	-1734.91003	-1125.19922	463.17719	-1722.49109	-1272.51587	335.21793	-1711.92188	-1419.37756	191.68361	-1664.16919	-1468.70325	194.32146	-1619.78479	-1346.30261	62.76236	-1651.2666	-1175.31055	651.02399	-1406.39136	-1161.30188	472.73917	-1451.85291	-1202.53516	286.21191	-1456.69092	-1222.76233	73.22991	-1516.23669	-1266.34448	42.395	-1567.13464	-1079.82166	37.03147	-1539.15063	-1201.26855	1682.74023	-1562.80396	NaN	NaN	NaN	NaN	NaN	NaN	NaN	NaN	NaN	NaN	NaN	NaN	NaN	NaN	NaN	NaN	NaN	NaN	NaN	NaN	NaN	NaN	NaN	NaN	NaN	NaN	NaN	NaN	NaN	NaN	NaN	NaN	NaN
39	0.38	-1096.95081	1632.13647	-1603.75366	-1116.92993	1629.1969	-1472.21301	-1219.8623	1576.43164	-1620.35925	-1234.46631	1574.19153	-1489.91028	-1250.43567	1423.71765	-1555.11316	-1293.95386	1112.12781	-1552.74072	-1126.75879	1347.90454	-1556.31702	-1087.35132	1181.22729	-1565.98865	-1301.2002	1250.16101	-1452.71643	-1173.40894	1385.68848	-1711.6676	-1187.23901	1187.46155	-1780.01306	-1180.56873	1064.00732	-1791.57898	-1159.04126	935.32123	-1794.53748	-1144.61621	815.28943	-1767.70105	-1169.70386	823.01483	-1817.55322	-1166.22534	736.95435	-1807.40491	-1166.61902	1370.77271	-1395.97363	-1144.151	1148.49426	-1325.64978	-1116.53845	1038.28796	-1317.0271	-1090.36841	904.01019	-1317.49121	-1062.50452	809.99506	-1357.79358	-1082.86523	804.21552	-1307.94385	-1057.43323	734.99933	-1321.4408	-1134.70227	942.79688	-1678.07788	-1116.75537	948.31268	-1439.81104	-1293.49585	962.26672	-1617.31213	-1281.27869	977.93372	-1469.34973	-1148.86035	641.2337	-1734.95813	-1106.93652	465.70581	-1721.87756	-1251.33557	334.08041	-1712.81042	-1395.30212	186.95714	-1666.50671	-1445.59534	186.99832	-1622.58386	-1315.83569	62.27734	-1653.64441	-1168.70239	650.95959	-1407.08521	-1157.19128	472.5061	-1452.14526	-1200.32214	286.44666	-1456.92529	-1222.65747	74.03625	-1515.927	-1265.77869	42.95254	-1567.7677	-1079.71191	36.96505	-1539.11072	-1191.76331	1683.047	-1563.67407	NaN	NaN	NaN	NaN	NaN	NaN	NaN	NaN	NaN	NaN	NaN	NaN	NaN	NaN	NaN	NaN	NaN	NaN	NaN	NaN	NaN	NaN	NaN	NaN	NaN	NaN	NaN	NaN	NaN	NaN	NaN	NaN	NaN
